<svg xmlns="http://www.w3.org/2000/svg">
  <symbol 
    id="icon-arrow-right"
    xmlns="http://www.w3.org/2000/svg" 
    fill="#fff" 
    style="fill: var(--c, currentColor)"
    viewBox="0 0 6.35 6.35">
    <path d="M2.258 1.315a.265.265 0 0 0-.174.469L3.703 3.17l-1.62 1.386a.265.265 0 1 0 .345.4L4.28 3.373a.265.265 0 0 0 0-.403L2.428 1.382a.265.265 0 0 0-.17-.067z"/>
  </symbol>

  <symbol 
    id="icon-instagram"
    xmlns="http://www.w3.org/2000/svg" 
    style="fill: var(--c, currentColor)"
    viewBox="0 0 27.52 27.53">
    <path d="M13.77 6.69a7.07 7.07 0 1 0 7.06 7.07 7.07 7.07 0 0 0-7.06-7.07Zm0 11.65a4.59 4.59 0 1 1 4.58-4.58 4.58 4.58 0 0 1-4.58 4.58Z"/>
    <path d="M19.44.09C16.9 0 10.64 0 8.1.09a8.23 8.23 0 0 0-5.78 2.22C-.32 5 0 8.53 0 13.76s-.28 8.83 2.32 11.44 6.28 2.31 11.45 2.31 7.13 0 9-.72a7.53 7.53 0 0 0 4.66-7.36c.12-2.54.11-8.8 0-11.34a7.59 7.59 0 0 0-7.15-8 6 6 0 0 0-.85 0Zm4 23.36C21.7 25.19 19.29 25 13.72 25c-5.73 0-8 .08-9.71-1.6-1.93-1.92-1.58-5-1.58-9.69 0-6.34-.64-10.9 5.72-11.23 1.46 0 1.89-.07 5.57-.07 6.11 0 10.91-.64 11.2 5.72.07 1.45.08 1.88.08 5.55 0 5.67.11 8-1.6 9.7Z"/>
    <circle cx="21.11" cy="6.42" r="1.65" />
  </symbol>

  <symbol 
    id="icon-linkedin"
    xmlns="http://www.w3.org/2000/svg" 
    style="fill: var(--c, currentColor)"
    viewBox="0 0 23.53 23.51">
    <path d="M23.53 23.51v-8.62c0-4.22-.91-7.47-5.84-7.47A5.11 5.11 0 0 0 13.08 10H13V7.81H8.34v15.7h4.87v-7.77c0-2.05.39-4 2.92-4s2.54 2.34 2.54 4.16v7.64Z"/>
    <path d="M.42 7.81h4.87v15.7H.42Z"/>
    <path d="M2.85 0a2.84 2.84 0 1 0 2.82 2.85A2.82 2.82 0 0 0 2.85 0Z"/>
  </symbol>

  <symbol
    id="icon-substack"
    xmlns="http://www.w3.org/2000/svg" 
    fill-rule="evenodd" 
    clip-rule="evenodd" 
    image-rendering="optimizeQuality" 
    shape-rendering="geometricPrecision" 
    text-rendering="geometricPrecision" 
    style="fill: var(--c, currentColor)"
    viewBox="0 0 448 511.471">
    <path d="M0 0h448v62.804H0V0zm0 229.083h448v282.388L223.954 385.808 0 511.471V229.083zm0-114.542h448v62.804H0v-62.804z"/>
  </symbol>

  <symbol 
    id="icon-youtube"
    xmlns="http://www.w3.org/2000/svg" 
    style="fill: var(--c, currentColor)"
    viewBox="0 0 27 27">
    <path d="M21.39 3.945H5.61A5.61 5.61 0 0 0 0 9.555v7.89a5.61 5.61 0 0 0 5.61 5.61h15.78a5.61 5.61 0 0 0 5.61-5.61v-7.89a5.61 5.61 0 0 0-5.61-5.61Zm-3.788 9.938-7.383 3.523a.298.298 0 0 1-.426-.27v-7.26c0-.223.234-.363.43-.266l7.382 3.743a.297.297 0 0 1-.003.53Zm0 0"/>
  </symbol>

  <symbol 
    id="icon-tiktok"
    xmlns="http://www.w3.org/2000/svg" 
    style="fill: var(--c, currentColor)"
    viewBox="0 0 48 48">
    <path fill-rule="evenodd" d="M38.077 15.854c-2.008-.06-3.827-1.02-5.198-2.307A7.507 7.507 0 0 1 30.562 8h-5.589v20.83c0 3.513-2.096 5.588-4.696 5.588a4.699 4.699 0 1 1 0-9.396c.517.004 1.03.095 1.518.268V19.6a7.023 7.023 0 0 0-1.518-.16 10.282 10.282 0 1 0 10.285 10.28V18.832c2.166 1.51 4.753 2.208 7.515 2.255v-5.233Z"/>
  </symbol>

  <symbol 
    id="icon-hamburger"
    xmlns="http://www.w3.org/2000/svg" 
    fill="none" 
    stroke="currentColor" 
    stroke-linecap="round" 
    stroke-linejoin="round" 
    stroke-width="2"
    style="stroke: var(--c, currentColor)"
    viewBox="0 0 24 24">
    <path d="M4 12h16M4 6h16M4 18h16"/>
  </symbol>

  <symbol 
    id="icon-x"
    xmlns="http://www.w3.org/2000/svg" 
    fill="none" 
    stroke="currentColor" 
    stroke-linecap="round" 
    stroke-linejoin="round" 
    stroke-width="2"
    style="stroke: var(--c, currentColor)"
    viewBox="0 0 24 24">
    <path d="M18 6 6 18M6 6l12 12"/>
  </symbol>
</svg>